<?xml version="1.0" encoding="UTF-8" standalone="no"?><svg xmlns="http://www.w3.org/2000/svg" xmlns:xlink="http://www.w3.org/1999/xlink" contentScriptType="application/ecmascript" contentStyleType="text/css" height="479px" preserveAspectRatio="none" style="width:600px;height:479px;" version="1.1" viewBox="0 0 600 479" width="600px" zoomAndPan="magnify"><defs><filter height="300%" id="f1bxn9t3i83ql4" width="300%" x="-1" y="-1"><feGaussianBlur result="blurOut" stdDeviation="2.0"/><feColorMatrix in="blurOut" result="blurOut2" type="matrix" values="0 0 0 0 0 0 0 0 0 0 0 0 0 0 0 0 0 0 .4 0"/><feOffset dx="4.0" dy="4.0" in="blurOut2" result="blurOut3"/><feBlend in="SourceGraphic" in2="blurOut3" mode="normal"/></filter></defs><g><line style="stroke:#A80036;stroke-width:1.0;stroke-dasharray:5.0,5.0;" x1="55" x2="55" y1="40.2969" y2="435.8906"/><line style="stroke:#A80036;stroke-width:1.0;stroke-dasharray:5.0,5.0;" x1="190" x2="190" y1="40.2969" y2="435.8906"/><line style="stroke:#A80036;stroke-width:1.0;stroke-dasharray:5.0,5.0;" x1="365" x2="365" y1="40.2969" y2="435.8906"/><line style="stroke:#A80036;stroke-width:1.0;stroke-dasharray:5.0,5.0;" x1="539.5" x2="539.5" y1="40.2969" y2="435.8906"/><rect fill="#FEFECE" filter="url(#f1bxn9t3i83ql4)" height="30.2969" style="stroke:#A80036;stroke-width:1.5;" width="86" x="10" y="5"/><text fill="#000000" font-family="sans-serif" font-size="14" lengthAdjust="spacing" textLength="72" x="17" y="24.9951">HDMI Sink</text><rect fill="#FEFECE" filter="url(#f1bxn9t3i83ql4)" height="30.2969" style="stroke:#A80036;stroke-width:1.5;" width="86" x="10" y="434.8906"/><text fill="#000000" font-family="sans-serif" font-size="14" lengthAdjust="spacing" textLength="72" x="17" y="454.8857">HDMI Sink</text><rect fill="#FEFECE" filter="url(#f1bxn9t3i83ql4)" height="30.2969" style="stroke:#A80036;stroke-width:1.5;" width="157" x="110" y="5"/><text fill="#000000" font-family="sans-serif" font-size="14" lengthAdjust="spacing" textLength="143" x="117" y="24.9951">EDID Processing API</text><rect fill="#FEFECE" filter="url(#f1bxn9t3i83ql4)" height="30.2969" style="stroke:#A80036;stroke-width:1.5;" width="157" x="110" y="434.8906"/><text fill="#000000" font-family="sans-serif" font-size="14" lengthAdjust="spacing" textLength="143" x="117" y="454.8857">EDID Processing API</text><rect fill="#FEFECE" filter="url(#f1bxn9t3i83ql4)" height="30.2969" style="stroke:#A80036;stroke-width:1.5;" width="165" x="281" y="5"/><text fill="#000000" font-family="sans-serif" font-size="14" lengthAdjust="spacing" textLength="151" x="288" y="24.9951">IPMX Control System</text><rect fill="#FEFECE" filter="url(#f1bxn9t3i83ql4)" height="30.2969" style="stroke:#A80036;stroke-width:1.5;" width="165" x="281" y="434.8906"/><text fill="#000000" font-family="sans-serif" font-size="14" lengthAdjust="spacing" textLength="151" x="288" y="454.8857">IPMX Control System</text><rect fill="#FEFECE" filter="url(#f1bxn9t3i83ql4)" height="30.2969" style="stroke:#A80036;stroke-width:1.5;" width="98" x="488.5" y="5"/><text fill="#000000" font-family="sans-serif" font-size="14" lengthAdjust="spacing" textLength="84" x="495.5" y="24.9951">ProAV Staff</text><rect fill="#FEFECE" filter="url(#f1bxn9t3i83ql4)" height="30.2969" style="stroke:#A80036;stroke-width:1.5;" width="98" x="488.5" y="434.8906"/><text fill="#000000" font-family="sans-serif" font-size="14" lengthAdjust="spacing" textLength="84" x="495.5" y="454.8857">ProAV Staff</text><polygon fill="#A80036" points="66,67.4297,56,71.4297,66,75.4297,62,71.4297" style="stroke:#A80036;stroke-width:1.0;"/><line style="stroke:#A80036;stroke-width:1.0;" x1="60" x2="189.5" y1="71.4297" y2="71.4297"/><text fill="#000000" font-family="sans-serif" font-size="13" lengthAdjust="spacing" textLength="84" x="72" y="66.3638">1. Read EDID</text><polygon fill="#A80036" points="178.5,96.5625,188.5,100.5625,178.5,104.5625,182.5,100.5625" style="stroke:#A80036;stroke-width:1.0;"/><line style="stroke:#A80036;stroke-width:1.0;" x1="55" x2="184.5" y1="100.5625" y2="100.5625"/><text fill="#000000" font-family="sans-serif" font-size="13" lengthAdjust="spacing" textLength="39" x="62" y="95.4966">return</text><line style="stroke:#A80036;stroke-width:1.0;" x1="190.5" x2="232.5" y1="129.6953" y2="129.6953"/><line style="stroke:#A80036;stroke-width:1.0;" x1="232.5" x2="232.5" y1="129.6953" y2="142.6953"/><line style="stroke:#A80036;stroke-width:1.0;" x1="191.5" x2="232.5" y1="142.6953" y2="142.6953"/><polygon fill="#A80036" points="201.5,138.6953,191.5,142.6953,201.5,146.6953,197.5,142.6953" style="stroke:#A80036;stroke-width:1.0;"/><text fill="#000000" font-family="sans-serif" font-size="13" lengthAdjust="spacing" textLength="87" x="197.5" y="124.6294">2. Parse EDID</text><line style="stroke:#A80036;stroke-width:1.0;" x1="190.5" x2="232.5" y1="171.8281" y2="171.8281"/><line style="stroke:#A80036;stroke-width:1.0;" x1="232.5" x2="232.5" y1="171.8281" y2="184.8281"/><line style="stroke:#A80036;stroke-width:1.0;" x1="191.5" x2="232.5" y1="184.8281" y2="184.8281"/><polygon fill="#A80036" points="201.5,180.8281,191.5,184.8281,201.5,188.8281,197.5,184.8281" style="stroke:#A80036;stroke-width:1.0;"/><text fill="#000000" font-family="sans-serif" font-size="13" lengthAdjust="spacing" textLength="92" x="197.5" y="166.7622">3. Update Sink</text><polygon fill="#A80036" points="376.5,209.9609,366.5,213.9609,376.5,217.9609,372.5,213.9609" style="stroke:#A80036;stroke-width:1.0;"/><line style="stroke:#A80036;stroke-width:1.0;" x1="370.5" x2="538.5" y1="213.9609" y2="213.9609"/><text fill="#000000" font-family="sans-serif" font-size="13" lengthAdjust="spacing" textLength="106" x="382.5" y="208.895">4. Get Raw EDID</text><polygon fill="#A80036" points="201.5,239.0938,191.5,243.0938,201.5,247.0938,197.5,243.0938" style="stroke:#A80036;stroke-width:1.0;"/><line style="stroke:#A80036;stroke-width:1.0;" x1="195.5" x2="364.5" y1="243.0938" y2="243.0938"/><text fill="#000000" font-family="sans-serif" font-size="13" lengthAdjust="spacing" textLength="106" x="207.5" y="238.0278">5. Get Raw EDID</text><polygon fill="#A80036" points="353.5,268.2266,363.5,272.2266,353.5,276.2266,357.5,272.2266" style="stroke:#A80036;stroke-width:1.0;"/><line style="stroke:#A80036;stroke-width:1.0;" x1="190.5" x2="359.5" y1="272.2266" y2="272.2266"/><text fill="#000000" font-family="sans-serif" font-size="13" lengthAdjust="spacing" textLength="39" x="197.5" y="267.1606">return</text><polygon fill="#A80036" points="527.5,297.3594,537.5,301.3594,527.5,305.3594,531.5,301.3594" style="stroke:#A80036;stroke-width:1.0;"/><line style="stroke:#A80036;stroke-width:1.0;" x1="365.5" x2="533.5" y1="301.3594" y2="301.3594"/><text fill="#000000" font-family="sans-serif" font-size="13" lengthAdjust="spacing" textLength="39" x="372.5" y="296.2935">return</text><polygon fill="#A80036" points="376.5,326.4922,366.5,330.4922,376.5,334.4922,372.5,330.4922" style="stroke:#A80036;stroke-width:1.0;"/><line style="stroke:#A80036;stroke-width:1.0;" x1="370.5" x2="538.5" y1="330.4922" y2="330.4922"/><text fill="#000000" font-family="sans-serif" font-size="13" lengthAdjust="spacing" textLength="150" x="382.5" y="325.4263">5. Get Parsed EDID Info</text><polygon fill="#A80036" points="201.5,355.625,191.5,359.625,201.5,363.625,197.5,359.625" style="stroke:#A80036;stroke-width:1.0;"/><line style="stroke:#A80036;stroke-width:1.0;" x1="195.5" x2="364.5" y1="359.625" y2="359.625"/><text fill="#000000" font-family="sans-serif" font-size="13" lengthAdjust="spacing" textLength="150" x="207.5" y="354.5591">6. Get Parsed EDID Info</text><polygon fill="#A80036" points="353.5,384.7578,363.5,388.7578,353.5,392.7578,357.5,388.7578" style="stroke:#A80036;stroke-width:1.0;"/><line style="stroke:#A80036;stroke-width:1.0;" x1="190.5" x2="359.5" y1="388.7578" y2="388.7578"/><text fill="#000000" font-family="sans-serif" font-size="13" lengthAdjust="spacing" textLength="39" x="197.5" y="383.6919">return</text><polygon fill="#A80036" points="527.5,413.8906,537.5,417.8906,527.5,421.8906,531.5,417.8906" style="stroke:#A80036;stroke-width:1.0;"/><line style="stroke:#A80036;stroke-width:1.0;" x1="365.5" x2="533.5" y1="417.8906" y2="417.8906"/><text fill="#000000" font-family="sans-serif" font-size="13" lengthAdjust="spacing" textLength="39" x="372.5" y="412.8247">return</text><!--MD5=[17637c7d0a78a0251f32e062f8206a48]
@startuml
participant "HDMI Sink"
participant "EDID Processing API"
participant "IPMX Control System"
participant "ProAV Staff"

"HDMI Sink" <- "EDID Processing API": 1. Read EDID
"HDMI Sink" -> "EDID Processing API": return
"EDID Processing API" -> "EDID Processing API": 2. Parse EDID
"EDID Processing API" -> "EDID Processing API": 3. Update Sink
"IPMX Control System" <- "ProAV Staff": 4. Get Raw EDID
"IPMX Control System" -> "EDID Processing API": 5. Get Raw EDID
"IPMX Control System" <- "EDID Processing API": return
"IPMX Control System" -> "ProAV Staff": return
"IPMX Control System" <- "ProAV Staff": 5. Get Parsed EDID Info
"IPMX Control System" -> "EDID Processing API": 6. Get Parsed EDID Info
"IPMX Control System" <- "EDID Processing API": return
"IPMX Control System" -> "ProAV Staff": return
@enduml

PlantUML version 1.2021.3beta6(Unknown compile time)
(GPL source distribution)
Java Runtime: Java(TM) SE Runtime Environment
JVM: Java HotSpot(TM) 64-Bit Server VM
Default Encoding: UTF-8
Language: en
Country: US
--></g></svg>