<?xml version="1.0" encoding="UTF-8" standalone="no"?><svg xmlns="http://www.w3.org/2000/svg" xmlns:xlink="http://www.w3.org/1999/xlink" contentScriptType="application/ecmascript" contentStyleType="text/css" height="479px" preserveAspectRatio="none" style="width:891px;height:479px;" version="1.1" viewBox="0 0 891 479" width="891px" zoomAndPan="magnify"><defs><filter height="300%" id="f2ooawz774d7b" width="300%" x="-1" y="-1"><feGaussianBlur result="blurOut" stdDeviation="2.0"/><feColorMatrix in="blurOut" result="blurOut2" type="matrix" values="0 0 0 0 0 0 0 0 0 0 0 0 0 0 0 0 0 0 .4 0"/><feOffset dx="4.0" dy="4.0" in="blurOut2" result="blurOut3"/><feBlend in="SourceGraphic" in2="blurOut3" mode="normal"/></filter></defs><g><line style="stroke:#A80036;stroke-width:1.0;stroke-dasharray:5.0,5.0;" x1="81" x2="81" y1="40.2969" y2="435.8906"/><line style="stroke:#A80036;stroke-width:1.0;stroke-dasharray:5.0,5.0;" x1="345" x2="345" y1="40.2969" y2="435.8906"/><line style="stroke:#A80036;stroke-width:1.0;stroke-dasharray:5.0,5.0;" x1="654" x2="654" y1="40.2969" y2="435.8906"/><line style="stroke:#A80036;stroke-width:1.0;stroke-dasharray:5.0,5.0;" x1="828.5" x2="828.5" y1="40.2969" y2="435.8906"/><rect fill="#FEFECE" filter="url(#f2ooawz774d7b)" height="30.2969" style="stroke:#A80036;stroke-width:1.5;" width="139" x="10" y="5"/><text fill="#000000" font-family="sans-serif" font-size="14" lengthAdjust="spacing" textLength="125" x="17" y="24.9951">HDMI Destination</text><rect fill="#FEFECE" filter="url(#f2ooawz774d7b)" height="30.2969" style="stroke:#A80036;stroke-width:1.5;" width="139" x="10" y="434.8906"/><text fill="#000000" font-family="sans-serif" font-size="14" lengthAdjust="spacing" textLength="125" x="17" y="454.8857">HDMI Destination</text><rect fill="#FEFECE" filter="url(#f2ooawz774d7b)" height="30.2969" style="stroke:#A80036;stroke-width:1.5;" width="361" x="163" y="5"/><text fill="#000000" font-family="sans-serif" font-size="14" lengthAdjust="spacing" textLength="347" x="170" y="24.9951">IPMX Device Control API: IPMX Device Controller</text><rect fill="#FEFECE" filter="url(#f2ooawz774d7b)" height="30.2969" style="stroke:#A80036;stroke-width:1.5;" width="361" x="163" y="434.8906"/><text fill="#000000" font-family="sans-serif" font-size="14" lengthAdjust="spacing" textLength="347" x="170" y="454.8857">IPMX Device Control API: IPMX Device Controller</text><rect fill="#FEFECE" filter="url(#f2ooawz774d7b)" height="30.2969" style="stroke:#A80036;stroke-width:1.5;" width="165" x="570" y="5"/><text fill="#000000" font-family="sans-serif" font-size="14" lengthAdjust="spacing" textLength="151" x="577" y="24.9951">IPMX Control System</text><rect fill="#FEFECE" filter="url(#f2ooawz774d7b)" height="30.2969" style="stroke:#A80036;stroke-width:1.5;" width="165" x="570" y="434.8906"/><text fill="#000000" font-family="sans-serif" font-size="14" lengthAdjust="spacing" textLength="151" x="577" y="454.8857">IPMX Control System</text><rect fill="#FEFECE" filter="url(#f2ooawz774d7b)" height="30.2969" style="stroke:#A80036;stroke-width:1.5;" width="102" x="775.5" y="5"/><text fill="#000000" font-family="sans-serif" font-size="14" lengthAdjust="spacing" textLength="88" x="782.5" y="24.9951">Pro AV Staff</text><rect fill="#FEFECE" filter="url(#f2ooawz774d7b)" height="30.2969" style="stroke:#A80036;stroke-width:1.5;" width="102" x="775.5" y="434.8906"/><text fill="#000000" font-family="sans-serif" font-size="14" lengthAdjust="spacing" textLength="88" x="782.5" y="454.8857">Pro AV Staff</text><polygon fill="#A80036" points="92.5,67.4297,82.5,71.4297,92.5,75.4297,88.5,71.4297" style="stroke:#A80036;stroke-width:1.0;"/><line style="stroke:#A80036;stroke-width:1.0;" x1="86.5" x2="344.5" y1="71.4297" y2="71.4297"/><text fill="#000000" font-family="sans-serif" font-size="13" lengthAdjust="spacing" textLength="84" x="98.5" y="66.3638">1. Read EDID</text><polygon fill="#A80036" points="333.5,96.5625,343.5,100.5625,333.5,104.5625,337.5,100.5625" style="stroke:#A80036;stroke-width:1.0;"/><line style="stroke:#A80036;stroke-width:1.0;" x1="81.5" x2="339.5" y1="100.5625" y2="100.5625"/><text fill="#000000" font-family="sans-serif" font-size="13" lengthAdjust="spacing" textLength="39" x="88.5" y="95.4966">return</text><line style="stroke:#A80036;stroke-width:1.0;" x1="345.5" x2="387.5" y1="129.6953" y2="129.6953"/><line style="stroke:#A80036;stroke-width:1.0;" x1="387.5" x2="387.5" y1="129.6953" y2="142.6953"/><line style="stroke:#A80036;stroke-width:1.0;" x1="346.5" x2="387.5" y1="142.6953" y2="142.6953"/><polygon fill="#A80036" points="356.5,138.6953,346.5,142.6953,356.5,146.6953,352.5,142.6953" style="stroke:#A80036;stroke-width:1.0;"/><text fill="#000000" font-family="sans-serif" font-size="13" lengthAdjust="spacing" textLength="87" x="352.5" y="124.6294">2. Parse EDID</text><line style="stroke:#A80036;stroke-width:1.0;" x1="345.5" x2="387.5" y1="171.8281" y2="171.8281"/><line style="stroke:#A80036;stroke-width:1.0;" x1="387.5" x2="387.5" y1="171.8281" y2="184.8281"/><line style="stroke:#A80036;stroke-width:1.0;" x1="346.5" x2="387.5" y1="184.8281" y2="184.8281"/><polygon fill="#A80036" points="356.5,180.8281,346.5,184.8281,356.5,188.8281,352.5,184.8281" style="stroke:#A80036;stroke-width:1.0;"/><text fill="#000000" font-family="sans-serif" font-size="13" lengthAdjust="spacing" textLength="295" x="352.5" y="166.7622">3. Update IPMX Device Control API Destination</text><polygon fill="#A80036" points="665.5,209.9609,655.5,213.9609,665.5,217.9609,661.5,213.9609" style="stroke:#A80036;stroke-width:1.0;"/><line style="stroke:#A80036;stroke-width:1.0;" x1="659.5" x2="827.5" y1="213.9609" y2="213.9609"/><text fill="#000000" font-family="sans-serif" font-size="13" lengthAdjust="spacing" textLength="106" x="671.5" y="208.895">4. Get Raw EDID</text><polygon fill="#A80036" points="356.5,239.0938,346.5,243.0938,356.5,247.0938,352.5,243.0938" style="stroke:#A80036;stroke-width:1.0;"/><line style="stroke:#A80036;stroke-width:1.0;" x1="350.5" x2="653.5" y1="243.0938" y2="243.0938"/><text fill="#000000" font-family="sans-serif" font-size="13" lengthAdjust="spacing" textLength="106" x="362.5" y="238.0278">5. Get Raw EDID</text><polygon fill="#A80036" points="642.5,268.2266,652.5,272.2266,642.5,276.2266,646.5,272.2266" style="stroke:#A80036;stroke-width:1.0;"/><line style="stroke:#A80036;stroke-width:1.0;" x1="345.5" x2="648.5" y1="272.2266" y2="272.2266"/><text fill="#000000" font-family="sans-serif" font-size="13" lengthAdjust="spacing" textLength="39" x="352.5" y="267.1606">return</text><polygon fill="#A80036" points="816.5,297.3594,826.5,301.3594,816.5,305.3594,820.5,301.3594" style="stroke:#A80036;stroke-width:1.0;"/><line style="stroke:#A80036;stroke-width:1.0;" x1="654.5" x2="822.5" y1="301.3594" y2="301.3594"/><text fill="#000000" font-family="sans-serif" font-size="13" lengthAdjust="spacing" textLength="39" x="661.5" y="296.2935">return</text><polygon fill="#A80036" points="665.5,326.4922,655.5,330.4922,665.5,334.4922,661.5,330.4922" style="stroke:#A80036;stroke-width:1.0;"/><line style="stroke:#A80036;stroke-width:1.0;" x1="659.5" x2="827.5" y1="330.4922" y2="330.4922"/><text fill="#000000" font-family="sans-serif" font-size="13" lengthAdjust="spacing" textLength="150" x="671.5" y="325.4263">5. Get Parsed EDID Info</text><polygon fill="#A80036" points="356.5,355.625,346.5,359.625,356.5,363.625,352.5,359.625" style="stroke:#A80036;stroke-width:1.0;"/><line style="stroke:#A80036;stroke-width:1.0;" x1="350.5" x2="653.5" y1="359.625" y2="359.625"/><text fill="#000000" font-family="sans-serif" font-size="13" lengthAdjust="spacing" textLength="150" x="362.5" y="354.5591">6. Get Parsed EDID Info</text><polygon fill="#A80036" points="642.5,384.7578,652.5,388.7578,642.5,392.7578,646.5,388.7578" style="stroke:#A80036;stroke-width:1.0;"/><line style="stroke:#A80036;stroke-width:1.0;" x1="345.5" x2="648.5" y1="388.7578" y2="388.7578"/><text fill="#000000" font-family="sans-serif" font-size="13" lengthAdjust="spacing" textLength="39" x="352.5" y="383.6919">return</text><polygon fill="#A80036" points="816.5,413.8906,826.5,417.8906,816.5,421.8906,820.5,417.8906" style="stroke:#A80036;stroke-width:1.0;"/><line style="stroke:#A80036;stroke-width:1.0;" x1="654.5" x2="822.5" y1="417.8906" y2="417.8906"/><text fill="#000000" font-family="sans-serif" font-size="13" lengthAdjust="spacing" textLength="39" x="661.5" y="412.8247">return</text><!--MD5=[f3126be15d1dbc72f45064d26bba97a4]
@startuml
participant "HDMI Destination"
participant "IPMX Device Control API: IPMX Device Controller"
participant "IPMX Control System"
participant "Pro AV Staff"

"HDMI Destination" <- "IPMX Device Control API: IPMX Device Controller": 1. Read EDID
"HDMI Destination" -> "IPMX Device Control API: IPMX Device Controller": return
"IPMX Device Control API: IPMX Device Controller" -> "IPMX Device Control API: IPMX Device Controller": 2. Parse EDID
"IPMX Device Control API: IPMX Device Controller" -> "IPMX Device Control API: IPMX Device Controller": 3. Update IPMX Device Control API Destination
"IPMX Control System" <- "Pro AV Staff": 4. Get Raw EDID
"IPMX Control System" -> "IPMX Device Control API: IPMX Device Controller": 5. Get Raw EDID
"IPMX Control System" <- "IPMX Device Control API: IPMX Device Controller": return
"IPMX Control System" -> "Pro AV Staff": return
"IPMX Control System" <- "Pro AV Staff": 5. Get Parsed EDID Info
"IPMX Control System" -> "IPMX Device Control API: IPMX Device Controller": 6. Get Parsed EDID Info
"IPMX Control System" <- "IPMX Device Control API: IPMX Device Controller": return
"IPMX Control System" -> "Pro AV Staff": return
@enduml

PlantUML version 1.2021.3beta4(Unknown compile time)
(GPL source distribution)
Java Runtime: Java(TM) SE Runtime Environment
JVM: Java HotSpot(TM) 64-Bit Server VM
Default Encoding: UTF-8
Language: en
Country: US
--></g></svg>